<?xml version="1.0" encoding="UTF-8" standalone="no"?>
<!DOCTYPE svg PUBLIC "-//W3C//DTD SVG 1.1//EN" "http://www.w3.org/Graphics/SVG/1.1/DTD/svg11.dtd">
<svg version="1.1" xmlns="http://www.w3.org/2000/svg" xmlns:xlink="http://www.w3.org/1999/xlink" preserveAspectRatio="xMidYMid meet" viewBox="0 0 1920 1080" width="1920" height="1080"><defs><path d="M1442.09 53.48C1452.68 53.48 1461.27 62.07 1461.27 72.66C1461.27 171.87 1461.27 450.31 1461.27 549.52C1461.27 560.11 1452.68 568.7 1442.09 568.7C1263.05 568.7 745.11 568.7 566.07 568.7C555.48 568.7 546.89 560.11 546.89 549.52C546.89 450.31 546.89 171.87 546.89 72.66C546.89 62.07 555.48 53.48 566.07 53.48C745.11 53.48 1263.05 53.48 1442.09 53.48Z" id="alQ96saX4"></path><path d="M660.91 91.86L1333.15 91.86L1333.15 111.17L660.91 111.17L660.91 91.86Z" id="d3cVAcBITp"></path><path d="M718.38 139.07L987.28 139.07L987.28 156.24L718.38 156.24L718.38 139.07Z" id="grUmDSxnM"></path><path d="M1067.51 139.07L1368.93 139.07L1368.93 156.24L1067.51 156.24L1067.51 139.07Z" id="d1d7l6FiTT"></path><path d="M767.17 251.73L1226.9 251.73L1226.9 318.26L767.17 318.26L767.17 251.73Z" id="a14cbwHcz7"></path><path d="M1088.11 463.11L1348.33 463.11L1348.33 499.59L1088.11 499.59L1088.11 463.11Z" id="cVxPKDkFZ"></path><path d="M706.45 469.54L997.03 469.54L997.03 503.88L706.45 503.88L706.45 469.54Z" id="a2yIf2A0G7"></path><path d="" id="jg5QMWbX9"></path><path d="M675.01 333.28L622.97 288.21L675.01 236.71" id="bfvDryeov"></path><path d="M1333.15 333.28L1385.2 288.21L1333.15 236.71" id="crgfqlQ88"></path><path d="M1310.38 230.91L1282.19 339.08" id="c1e84WQzGo"></path><path d="M631.64 409.46L1385.2 409.46L1385.2 428.77L631.64 428.77L631.64 409.46Z" id="b2yAqLGKuj"></path><path d="M842.53 581.25L1158.72 581.25L1158.72 678.9L842.53 678.9L842.53 581.25Z" id="e3jwSR2Irp"></path><path d="M1194.73 651C1210.14 651 1222.63 663.49 1222.63 678.9C1222.63 684.48 1222.63 673.32 1222.63 678.9C1222.63 694.31 1210.14 706.8 1194.73 706.8C1112.89 706.8 895.27 706.8 813.43 706.8C798.03 706.8 785.53 694.31 785.53 678.9C785.53 673.32 785.53 684.48 785.53 678.9C785.53 663.49 798.03 651 813.43 651C895.27 651 1112.89 651 1194.73 651Z" id="cCEdqyQuf"></path><path d="M912.23 471.25C922.82 471.25 931.41 479.84 931.41 490.44C931.41 579.09 931.41 825.88 931.41 914.54C931.41 925.13 922.82 933.72 912.23 933.72C770.12 933.72 362.96 933.72 220.85 933.72C210.25 933.72 201.67 925.13 201.67 914.54C201.67 825.88 201.67 579.09 201.67 490.44C201.67 479.84 210.25 471.25 220.85 471.25C362.96 471.25 770.12 471.25 912.23 471.25Z" id="a1y54AVaQR"></path><path d="M293.98 516.97L839.09 516.97L839.09 532.8L293.98 532.8L293.98 516.97Z" id="b4Cmx4wvq2"></path><path d="M340.58 555.66L558.63 555.66L558.63 569.73L340.58 569.73L340.58 555.66Z" id="a4EtNYGgYT"></path><path d="M623.69 555.66L868.11 555.66L868.11 569.73L623.69 569.73L623.69 555.66Z" id="a2ghUq1d23"></path><path d="M380.15 647.98L752.93 647.98L752.93 702.49L380.15 702.49L380.15 647.98Z" id="c4WLnaCypI"></path><path d="M640.39 821.18L851.4 821.18L851.4 851.07L640.39 851.07L640.39 821.18Z" id="cdbTKJWUv"></path><path d="M330.91 826.46L566.54 826.46L566.54 854.59L330.91 854.59L330.91 826.46Z" id="dQvuLaYQd"></path><path d="" id="c26T7cwOcE"></path><path d="M305.41 714.8L263.21 677.87L305.41 635.67" id="cu8fDIRJv"></path><path d="M839.09 714.8L881.3 677.87L839.09 635.67" id="h4mLKeH5oh"></path><path d="M820.63 630.91L797.77 719.55" id="b1GmZFERda"></path><path d="M270.25 777.22L881.3 777.22L881.3 793.05L270.25 793.05L270.25 777.22Z" id="b3no8R8XP"></path><path d="M967.64 960.1C977.49 960.1 985.48 968.08 985.48 977.94C985.48 984.57 985.48 986.62 985.48 993.25C985.48 1003.1 977.49 1011.09 967.64 1011.09C807.32 1011.09 344.22 1011.09 183.9 1011.09C174.05 1011.09 166.06 1003.1 166.06 993.25C166.06 986.62 166.06 984.57 166.06 977.94C166.06 968.08 174.05 960.1 183.9 960.1C344.22 960.1 807.32 960.1 967.64 960.1Z" id="cDsO3CCSn"></path><path d="M1746.88 444.35C1757.47 444.35 1766.06 452.94 1766.06 463.53C1766.06 563.09 1766.06 842.59 1766.06 942.15C1766.06 952.74 1757.47 961.33 1746.88 961.33C1666.31 961.33 1443.79 961.33 1363.22 961.33C1352.63 961.33 1344.04 952.74 1344.04 942.15C1344.04 842.59 1344.04 563.09 1344.04 463.53C1344.04 452.94 1352.63 444.35 1363.22 444.35C1443.79 444.35 1666.31 444.35 1746.88 444.35Z" id="cBAzDRwLK"></path><path d="M1397.9 522.2L1705.74 522.2L1705.74 537.78L1397.9 537.78L1397.9 522.2Z" id="ennxfioG2"></path><path d="M1408.39 574.13L1531.53 574.13L1531.53 587.98L1408.39 587.98L1408.39 574.13Z" id="a6cAK03W3"></path><path d="M1579.01 574.35L1717.04 574.35L1717.04 588.2L1579.01 588.2L1579.01 574.35Z" id="cBOjulCFR"></path><path d="M1459.75 652.49L1643.89 652.49L1643.89 703.48L1459.75 703.48L1459.75 652.49Z" id="a1jFBaYElO"></path><path d="M1586.58 863.86L1705.74 863.86L1705.74 893.28L1586.58 893.28L1586.58 863.86Z" id="aWAC2jeXH"></path><path d="M1418.76 867.29L1551.82 867.29L1551.82 894.99L1418.76 894.99L1418.76 867.29Z" id="e1a2EI7Yr"></path><path d="" id="exxd7ln1"></path><path d="M1418.76 709.89L1380.53 680.11L1418.76 646.08" id="b2L0D8rHLw"></path><path d="M1382.51 803L1727.59 803L1727.59 818.58L1382.51 818.58L1382.51 803Z" id="k4v7acOsb6"></path><path d="M1600.77 953.41C1605.14 953.41 1608.68 956.96 1608.68 961.33C1608.68 962.91 1608.68 959.75 1608.68 961.33C1608.68 965.7 1605.14 969.24 1600.77 969.24C1580.9 969.24 1529.2 969.24 1509.33 969.24C1504.96 969.24 1501.42 965.7 1501.42 961.33C1501.42 959.75 1501.42 962.91 1501.42 961.33C1501.42 956.96 1504.96 953.41 1509.33 953.41C1529.2 953.41 1580.9 953.41 1600.77 953.41Z" id="a1dOC8CFqS"></path><path d="M1689.35 709.89L1727.59 680.11L1689.35 646.08" id="bo8zPhPBG"></path><path d="M1672.86 646.08L1657.04 709.89" id="f1aMuIGdhx"></path><path d="M1401.1 802.54C1411.69 802.54 1420.28 811.13 1420.28 821.72C1420.28 867.12 1420.28 984.14 1420.28 1029.54C1420.28 1040.13 1411.69 1048.72 1401.1 1048.72C1376.45 1048.72 1321.68 1048.72 1297.03 1048.72C1286.43 1048.72 1277.84 1040.13 1277.84 1029.54C1277.84 984.14 1277.84 867.12 1277.84 821.72C1277.84 811.13 1286.43 802.54 1297.03 802.54C1321.68 802.54 1376.45 802.54 1401.1 802.54Z" id="bvfxwMgIQ"></path><path d="M1374.56 1045.21C1375.53 1045.21 1376.32 1045.99 1376.32 1046.96C1376.32 1048.02 1376.32 1049.43 1376.32 1050.48C1376.32 1051.45 1375.53 1052.24 1374.56 1052.24C1364.01 1052.24 1334.11 1052.24 1323.56 1052.24C1322.59 1052.24 1321.81 1051.45 1321.81 1050.48C1321.81 1049.43 1321.81 1048.02 1321.81 1046.96C1321.81 1045.99 1322.59 1045.21 1323.56 1045.21C1334.11 1045.21 1364.01 1045.21 1374.56 1045.21Z" id="b2COrmKML4"></path><path d="M1303.67 832.07L1393.15 832.07L1393.15 838.4L1303.67 838.4L1303.67 832.07Z" id="ctOLgpfaQ"></path><path d="M1306.72 853.16L1342.51 853.16L1342.51 858.78L1306.72 858.78L1306.72 853.16Z" id="b1bJhzXqrs"></path><path d="M1356.31 853.25L1396.43 853.25L1396.43 858.87L1356.31 858.87L1356.31 853.25Z" id="a3c2oZ6rC"></path><path d="M1321.65 884.98L1375.17 884.98L1375.17 905.68L1321.65 905.68L1321.65 884.98Z" id="a2VdOm30x"></path><path d="M1358.51 970.8L1393.15 970.8L1393.15 982.75L1358.51 982.75L1358.51 970.8Z" id="aQIQ6O855"></path><path d="M1309.73 972.2L1348.41 972.2L1348.41 983.44L1309.73 983.44L1309.73 972.2Z" id="e99ohJTRh"></path><path d="" id="k35viUTrZ"></path><path d="M1309.73 908.28L1298.62 896.19L1309.73 882.38" id="b3prKhyiDO"></path><path d="M1299.2 946.09L1399.5 946.09L1399.5 952.42L1299.2 952.42L1299.2 946.09Z" id="b2kkpZMlUD"></path><path d="M1362.64 1007.17C1363.91 1007.17 1364.94 1008.2 1364.94 1009.47C1364.94 1010.29 1364.94 1010.47 1364.94 1011.29C1364.94 1012.56 1363.91 1013.59 1362.64 1013.59C1356.86 1013.59 1341.84 1013.59 1336.06 1013.59C1334.79 1013.59 1333.76 1012.56 1333.76 1011.29C1333.76 1010.47 1333.76 1010.29 1333.76 1009.47C1333.76 1008.2 1334.79 1007.17 1336.06 1007.17C1341.84 1007.17 1356.86 1007.17 1362.64 1007.17Z" id="b2T9z7froC"></path><path d="M1388.39 908.28L1399.5 896.19L1388.39 882.38" id="b9tAWhFW2"></path><path d="M1383.59 882.38L1378.99 908.28" id="i10GGPGsjn"></path></defs><g><g><g><g><use xlink:href="#alQ96saX4" opacity="1" fill="#f6ffff" fill-opacity="1"></use><g><use xlink:href="#alQ96saX4" opacity="1" fill-opacity="0" stroke="#383c42" stroke-width="15" stroke-opacity="1"></use></g></g><g><g><use xlink:href="#d3cVAcBITp" opacity="1" fill="#23c8c8" fill-opacity="1"></use></g><g><use xlink:href="#grUmDSxnM" opacity="1" fill="#2a7272" fill-opacity="1"></use></g><g><use xlink:href="#d1d7l6FiTT" opacity="1" fill="#e17218" fill-opacity="1"></use></g><g><use xlink:href="#a14cbwHcz7" opacity="1" fill="#2ba17a" fill-opacity="1"></use></g><g><use xlink:href="#cVxPKDkFZ" opacity="1" fill="#d53710" fill-opacity="1"></use></g><g><use xlink:href="#a2yIf2A0G7" opacity="1" fill="#0d7e69" fill-opacity="1"></use></g><g><g><use xlink:href="#jg5QMWbX9" opacity="1" fill-opacity="0" stroke="#439090" stroke-width="15" stroke-opacity="1"></use></g></g><g><g><use xlink:href="#bfvDryeov" opacity="1" fill-opacity="0" stroke="#060606" stroke-width="5" stroke-opacity="1"></use></g></g><g><g><use xlink:href="#crgfqlQ88" opacity="1" fill-opacity="0" stroke="#000000" stroke-width="5" stroke-opacity="1"></use></g></g><g><g><use xlink:href="#c1e84WQzGo" opacity="1" fill-opacity="0" stroke="#000000" stroke-width="5" stroke-opacity="1"></use></g></g><g><use xlink:href="#b2yAqLGKuj" opacity="1" fill="#e02a68" fill-opacity="1"></use></g></g><g><use xlink:href="#e3jwSR2Irp" opacity="1" fill="#383c42" fill-opacity="1"></use></g><g><use xlink:href="#cCEdqyQuf" opacity="1" fill="#383c42" fill-opacity="1"></use></g></g><g><g><use xlink:href="#a1y54AVaQR" opacity="1" fill="#fefefe" fill-opacity="1"></use><g><use xlink:href="#a1y54AVaQR" opacity="1" fill-opacity="0" stroke="#383c42" stroke-width="15" stroke-opacity="1"></use></g></g><g><g><g><use xlink:href="#b4Cmx4wvq2" opacity="1" fill="#23c8c8" fill-opacity="1"></use></g><g><use xlink:href="#a4EtNYGgYT" opacity="1" fill="#2a7272" fill-opacity="1"></use></g><g><use xlink:href="#a2ghUq1d23" opacity="1" fill="#e17218" fill-opacity="1"></use></g><g><use xlink:href="#c4WLnaCypI" opacity="1" fill="#2ba17a" fill-opacity="1"></use></g><g><use xlink:href="#cdbTKJWUv" opacity="1" fill="#d53710" fill-opacity="1"></use></g><g><use xlink:href="#dQvuLaYQd" opacity="1" fill="#0d7e69" fill-opacity="1"></use></g><g><g><use xlink:href="#c26T7cwOcE" opacity="1" fill-opacity="0" stroke="#439090" stroke-width="15" stroke-opacity="1"></use></g></g><g><g><use xlink:href="#cu8fDIRJv" opacity="1" fill-opacity="0" stroke="#060606" stroke-width="5" stroke-opacity="1"></use></g></g><g><g><use xlink:href="#h4mLKeH5oh" opacity="1" fill-opacity="0" stroke="#000000" stroke-width="5" stroke-opacity="1"></use></g></g><g><g><use xlink:href="#b1GmZFERda" opacity="1" fill-opacity="0" stroke="#000000" stroke-width="5" stroke-opacity="1"></use></g></g><g><use xlink:href="#b3no8R8XP" opacity="1" fill="#e02a68" fill-opacity="1"></use></g></g><g><use xlink:href="#cDsO3CCSn" opacity="1" fill="#383c42" fill-opacity="1"></use></g></g></g><g><g><use xlink:href="#cBAzDRwLK" opacity="1" fill="#ffffff" fill-opacity="1"></use><g><use xlink:href="#cBAzDRwLK" opacity="1" fill-opacity="0" stroke="#383c42" stroke-width="15" stroke-opacity="1"></use></g></g><g><g><use xlink:href="#ennxfioG2" opacity="1" fill="#23c8c8" fill-opacity="1"></use></g><g><use xlink:href="#a6cAK03W3" opacity="1" fill="#2a7272" fill-opacity="1"></use></g><g><use xlink:href="#cBOjulCFR" opacity="1" fill="#e17218" fill-opacity="1"></use></g><g><use xlink:href="#a1jFBaYElO" opacity="1" fill="#2ba17a" fill-opacity="1"></use></g><g><use xlink:href="#aWAC2jeXH" opacity="1" fill="#d53710" fill-opacity="1"></use></g><g><use xlink:href="#e1a2EI7Yr" opacity="1" fill="#0d7e69" fill-opacity="1"></use></g><g><g><use xlink:href="#exxd7ln1" opacity="1" fill-opacity="0" stroke="#439090" stroke-width="15" stroke-opacity="1"></use></g></g><g><g><use xlink:href="#b2L0D8rHLw" opacity="1" fill-opacity="0" stroke="#060606" stroke-width="5" stroke-opacity="1"></use></g></g><g><use xlink:href="#k4v7acOsb6" opacity="1" fill="#e02a68" fill-opacity="1"></use></g><g><use xlink:href="#a1dOC8CFqS" opacity="1" fill="#9cb7b9" fill-opacity="1"></use></g><g><g><use xlink:href="#bo8zPhPBG" opacity="1" fill-opacity="0" stroke="#060606" stroke-width="5" stroke-opacity="1"></use></g></g><g><g><use xlink:href="#f1aMuIGdhx" opacity="1" fill-opacity="0" stroke="#000000" stroke-width="5" stroke-opacity="1"></use></g></g></g></g><g><g><use xlink:href="#bvfxwMgIQ" opacity="1" fill="#ffffff" fill-opacity="1"></use><g><use xlink:href="#bvfxwMgIQ" opacity="1" fill-opacity="0" stroke="#383c42" stroke-width="10" stroke-opacity="1"></use></g></g><g><use xlink:href="#b2COrmKML4" opacity="1" fill="#5d8587" fill-opacity="1"></use></g><g><use xlink:href="#ctOLgpfaQ" opacity="1" fill="#23c8c8" fill-opacity="1"></use></g><g><use xlink:href="#b1bJhzXqrs" opacity="1" fill="#2a7272" fill-opacity="1"></use></g><g><use xlink:href="#a3c2oZ6rC" opacity="1" fill="#e17218" fill-opacity="1"></use></g><g><use xlink:href="#a2VdOm30x" opacity="1" fill="#2ba17a" fill-opacity="1"></use></g><g><use xlink:href="#aQIQ6O855" opacity="1" fill="#d53710" fill-opacity="1"></use></g><g><use xlink:href="#e99ohJTRh" opacity="1" fill="#0d7e69" fill-opacity="1"></use></g><g><g><use xlink:href="#k35viUTrZ" opacity="1" fill-opacity="0" stroke="#439090" stroke-width="15" stroke-opacity="1"></use></g></g><g><g><use xlink:href="#b3prKhyiDO" opacity="1" fill-opacity="0" stroke="#060606" stroke-width="1" stroke-opacity="1"></use></g></g><g><use xlink:href="#b2kkpZMlUD" opacity="1" fill="#e02a68" fill-opacity="1"></use></g><g><use xlink:href="#b2T9z7froC" opacity="1" fill="#9cb7b9" fill-opacity="1"></use></g><g><g><use xlink:href="#b9tAWhFW2" opacity="1" fill-opacity="0" stroke="#060606" stroke-width="1" stroke-opacity="1"></use></g></g><g><g><use xlink:href="#i10GGPGsjn" opacity="1" fill-opacity="0" stroke="#000000" stroke-width="1" stroke-opacity="1"></use></g></g></g></g></g></svg>