<?xml version="1.0" encoding="UTF-8" standalone="no"?>
<!DOCTYPE svg PUBLIC "-//W3C//DTD SVG 1.1//EN" "http://www.w3.org/Graphics/SVG/1.1/DTD/svg11.dtd">
<svg version="1.1" xmlns="http://www.w3.org/2000/svg" xmlns:xlink="http://www.w3.org/1999/xlink" preserveAspectRatio="xMidYMid meet" viewBox="0 0 768 640" width="768" height="640"><defs><path d="M597.17 137.12C601.38 137.12 604.8 140.54 604.8 144.75C604.8 184.26 604.8 295.15 604.8 334.66C604.8 338.88 601.38 342.3 597.17 342.3C525.86 342.3 319.59 342.3 248.29 342.3C244.07 342.3 240.65 338.88 240.65 334.66C240.65 295.15 240.65 184.26 240.65 144.75C240.65 140.54 244.07 137.12 248.29 137.12C319.59 137.12 525.86 137.12 597.17 137.12Z" id="d1XZDcLt26"></path><path d="M286.06 152.4L553.78 152.4L553.78 160.09L286.06 160.09L286.06 152.4Z" id="e3nPZZLK3U"></path><path d="M308.95 171.2L416.04 171.2L416.04 178.04L308.95 178.04L308.95 171.2Z" id="ai5TLs1Xh"></path><path d="M447.99 171.2L568.03 171.2L568.03 178.04L447.99 178.04L447.99 171.2Z" id="eKiWa2D0N"></path><path d="M328.38 216.07L511.46 216.07L511.46 242.56L328.38 242.56L328.38 216.07Z" id="ajsfll9sS"></path><path d="M456.19 300.25L559.83 300.25L559.83 314.78L456.19 314.78L456.19 300.25Z" id="a3mLCyhK2y"></path><path d="M304.2 302.81L419.92 302.81L419.92 316.49L304.2 316.49L304.2 302.81Z" id="b2e8rIj0lb"></path><path d="" id="e10ddEcPcS"></path><path d="M291.67 248.55L270.95 230.6L291.67 210.09" id="e4pEvLyJ0"></path><path d="M553.78 248.55L574.51 230.6L553.78 210.09" id="a2A74qmes9"></path><path d="M544.71 207.78L533.49 250.86" id="gq8kiZZth"></path><path d="M274.4 278.88L574.51 278.88L574.51 286.58L274.4 286.58L274.4 278.88Z" id="bqgZMe2P1"></path><path d="M358.39 347.3L484.32 347.3L484.32 386.19L358.39 386.19L358.39 347.3Z" id="c3rL2uFd2"></path><path d="M498.65 375.08C504.79 375.08 509.77 380.05 509.77 386.19C509.77 388.41 509.77 383.97 509.77 386.19C509.77 392.32 504.79 397.3 498.65 397.3C466.06 397.3 379.4 397.3 346.8 397.3C340.67 397.3 335.69 392.32 335.69 386.19C335.69 383.97 335.69 388.41 335.69 386.19C335.69 380.05 340.67 375.08 346.8 375.08C379.4 375.08 466.06 375.08 498.65 375.08Z" id="a2Nia5CZD"></path><path d="M676.36 250.78C680.58 250.78 684 254.2 684 258.42C684 298.07 684 409.38 684 449.03C684 453.25 680.58 456.67 676.36 456.67C644.27 456.67 555.65 456.67 523.57 456.67C519.35 456.67 515.93 453.25 515.93 449.03C515.93 409.38 515.93 298.07 515.93 258.42C515.93 254.2 519.35 250.78 523.57 250.78C555.65 250.78 644.27 250.78 676.36 250.78Z" id="g2UIsQXkKm"></path><path d="M537.38 281.79L659.98 281.79L659.98 287.99L537.38 287.99L537.38 281.79Z" id="a3kYOTT9tj"></path><path d="M541.56 302.47L590.6 302.47L590.6 307.98L541.56 307.98L541.56 302.47Z" id="b17jAY50Ct"></path><path d="M609.51 302.55L664.48 302.55L664.48 308.07L609.51 308.07L609.51 302.55Z" id="aTEHZdC8L"></path><path d="M562.01 333.67L635.35 333.67L635.35 353.98L562.01 353.98L562.01 333.67Z" id="b1lVgohDga"></path><path d="M612.52 417.85L659.98 417.85L659.98 429.57L612.52 429.57L612.52 417.85Z" id="b2IGsnmfBJ"></path><path d="M545.69 419.22L598.68 419.22L598.68 430.25L545.69 430.25L545.69 419.22Z" id="c1YlJeEmCR"></path><path d="" id="a1hBvQY0hl"></path><path d="M545.69 356.53L530.46 344.67L545.69 331.12" id="b1Cy6bwbR"></path><path d="M531.25 393.61L668.68 393.61L668.68 399.82L531.25 399.82L531.25 393.61Z" id="i27tI6Re4p"></path><path d="M618.17 453.52C619.91 453.52 621.32 454.93 621.32 456.67C621.32 457.3 621.32 456.04 621.32 456.67C621.32 458.41 619.91 459.82 618.17 459.82C610.26 459.82 589.67 459.82 581.76 459.82C580.02 459.82 578.61 458.41 578.61 456.67C578.61 456.04 578.61 457.3 578.61 456.67C578.61 454.93 580.02 453.52 581.76 453.52C589.67 453.52 610.26 453.52 618.17 453.52Z" id="i15QO1Vdfv"></path><path d="M653.45 356.53L668.68 344.67L653.45 331.12" id="a57OFufyyT"></path><path d="M646.88 331.12L640.58 356.53" id="h2kN1VmpxE"></path><path d="M542.07 420.22C546.29 420.22 549.71 423.64 549.71 427.86C549.71 445.94 549.71 492.55 549.71 510.63C549.71 514.84 546.29 518.26 542.07 518.26C532.25 518.26 510.44 518.26 500.62 518.26C496.41 518.26 492.99 514.84 492.99 510.63C492.99 492.55 492.99 445.94 492.99 427.86C492.99 423.64 496.41 420.22 500.62 420.22C510.44 420.22 532.25 420.22 542.07 420.22Z" id="ckLiow9hf"></path><path d="M531.5 516.86C531.89 516.86 532.2 517.18 532.2 517.56C532.2 517.98 532.2 518.55 532.2 518.97C532.2 519.35 531.89 519.67 531.5 519.67C527.3 519.67 515.4 519.67 511.19 519.67C510.81 519.67 510.49 519.35 510.49 518.97C510.49 518.55 510.49 517.98 510.49 517.56C510.49 517.18 510.81 516.86 511.19 516.86C515.4 516.86 527.3 516.86 531.5 516.86Z" id="h2EyclijnT"></path><path d="M503.27 431.98L538.91 431.98L538.91 434.5L503.27 434.5L503.27 431.98Z" id="b8YgdMA13"></path><path d="M504.49 440.38L518.74 440.38L518.74 442.62L504.49 442.62L504.49 440.38Z" id="e2LBYvcCH"></path><path d="M524.24 440.42L540.21 440.42L540.21 442.66L524.24 442.66L524.24 440.42Z" id="b6AQSXvjj"></path><path d="M510.43 453.05L531.75 453.05L531.75 461.3L510.43 461.3L510.43 453.05Z" id="aMHN4rTcb"></path><path d="M525.11 487.23L538.91 487.23L538.91 491.99L525.11 491.99L525.11 487.23Z" id="cyGEJoI0b"></path><path d="M505.69 487.79L521.09 487.79L521.09 492.27L505.69 492.27L505.69 487.79Z" id="b6f4lNiJH"></path><path d="" id="br3TG6EnM"></path><path d="M505.69 462.33L501.26 457.52L505.69 452.02" id="a2CJL0WrtG"></path><path d="M501.49 477.39L541.44 477.39L541.44 479.91L501.49 479.91L501.49 477.39Z" id="a1rgfmz6q4"></path><path d="M526.76 501.72C527.26 501.72 527.67 502.13 527.67 502.63C527.67 502.96 527.67 503.03 527.67 503.36C527.67 503.86 527.26 504.27 526.76 504.27C524.46 504.27 518.47 504.27 516.17 504.27C515.66 504.27 515.25 503.86 515.25 503.36C515.25 503.03 515.25 502.96 515.25 502.63C515.25 502.13 515.66 501.72 516.17 501.72C518.47 501.72 524.46 501.72 526.76 501.72Z" id="h3LXrZvFiX"></path><path d="M537.01 462.33L541.44 457.52L537.01 452.02" id="b4oQA8rI60"></path><path d="M535.1 452.02L533.27 462.33" id="b2lmVqptFB"></path><path d="M381.16 294.81C385.38 294.81 388.8 298.23 388.8 302.44C388.8 337.75 388.8 436.04 388.8 471.34C388.8 475.56 385.38 478.98 381.16 478.98C324.57 478.98 162.42 478.98 105.82 478.98C101.6 478.98 98.18 475.56 98.18 471.34C98.18 436.04 98.18 337.75 98.18 302.44C98.18 298.23 101.6 294.81 105.82 294.81C162.42 294.81 324.57 294.81 381.16 294.81Z" id="b4Lzy0Qgvh"></path><path d="M134.95 313.01L352.04 313.01L352.04 319.32L134.95 319.32L134.95 313.01Z" id="a5Bsujnww"></path><path d="M153.5 328.42L240.34 328.42L240.34 334.02L153.5 334.02L153.5 328.42Z" id="d7ubUu349"></path><path d="M266.25 328.42L363.59 328.42L363.59 334.02L266.25 334.02L266.25 328.42Z" id="dszAeDzM4"></path><path d="M169.26 365.18L317.72 365.18L317.72 386.89L169.26 386.89L169.26 365.18Z" id="b29I6kEq1C"></path><path d="M272.9 434.16L356.94 434.16L356.94 446.07L272.9 446.07L272.9 434.16Z" id="c1lLMLNF0"></path><path d="M149.65 436.26L243.49 436.26L243.49 447.47L149.65 447.47L149.65 436.26Z" id="cYUKWlTRC"></path><path d="" id="bamSuxebD"></path><path d="M139.5 391.8L122.69 377.09L139.5 360.28" id="bzHkTQ7v0"></path><path d="M352.04 391.8L368.84 377.09L352.04 360.28" id="aOkZiIpz7"></path><path d="M344.68 358.39L335.58 393.69" id="aDGBzdk"></path><path d="M125.49 416.66L368.84 416.66L368.84 422.96L125.49 422.96L125.49 416.66Z" id="a7uk3uFhc"></path><path d="M403.23 489.49C407.16 489.49 410.34 492.67 410.34 496.59C410.34 499.23 410.34 500.05 410.34 502.69C410.34 506.61 407.16 509.79 403.23 509.79C339.39 509.79 154.95 509.79 91.11 509.79C87.18 509.79 84 506.61 84 502.69C84 500.05 84 499.23 84 496.59C84 492.67 87.18 489.49 91.11 489.49C154.95 489.49 339.39 489.49 403.23 489.49Z" id="d1Vf3yDkR"></path></defs><g><g><g><g><use xlink:href="#d1XZDcLt26" opacity="1" fill="#f6ffff" fill-opacity="1"></use><g><use xlink:href="#d1XZDcLt26" opacity="1" fill-opacity="0" stroke="#383c42" stroke-width="15" stroke-opacity="1"></use></g></g><g><g><use xlink:href="#e3nPZZLK3U" opacity="1" fill="#23c8c8" fill-opacity="1"></use></g><g><use xlink:href="#ai5TLs1Xh" opacity="1" fill="#2a7272" fill-opacity="1"></use></g><g><use xlink:href="#eKiWa2D0N" opacity="1" fill="#e17218" fill-opacity="1"></use></g><g><use xlink:href="#ajsfll9sS" opacity="1" fill="#2ba17a" fill-opacity="1"></use></g><g><use xlink:href="#a3mLCyhK2y" opacity="1" fill="#d53710" fill-opacity="1"></use></g><g><use xlink:href="#b2e8rIj0lb" opacity="1" fill="#0d7e69" fill-opacity="1"></use></g><g><g><use xlink:href="#e10ddEcPcS" opacity="1" fill-opacity="0" stroke="#439090" stroke-width="15" stroke-opacity="1"></use></g></g><g><g><use xlink:href="#e4pEvLyJ0" opacity="1" fill-opacity="0" stroke="#060606" stroke-width="5" stroke-opacity="1"></use></g></g><g><g><use xlink:href="#a2A74qmes9" opacity="1" fill-opacity="0" stroke="#000000" stroke-width="5" stroke-opacity="1"></use></g></g><g><g><use xlink:href="#gq8kiZZth" opacity="1" fill-opacity="0" stroke="#000000" stroke-width="5" stroke-opacity="1"></use></g></g><g><use xlink:href="#bqgZMe2P1" opacity="1" fill="#e02a68" fill-opacity="1"></use></g></g><g><use xlink:href="#c3rL2uFd2" opacity="1" fill="#383c42" fill-opacity="1"></use></g><g><use xlink:href="#a2Nia5CZD" opacity="1" fill="#383c42" fill-opacity="1"></use></g></g><g><g><use xlink:href="#g2UIsQXkKm" opacity="1" fill="#ffffff" fill-opacity="1"></use><g><use xlink:href="#g2UIsQXkKm" opacity="1" fill-opacity="0" stroke="#383c42" stroke-width="15" stroke-opacity="1"></use></g></g><g><g><use xlink:href="#a3kYOTT9tj" opacity="1" fill="#23c8c8" fill-opacity="1"></use></g><g><use xlink:href="#b17jAY50Ct" opacity="1" fill="#2a7272" fill-opacity="1"></use></g><g><use xlink:href="#aTEHZdC8L" opacity="1" fill="#e17218" fill-opacity="1"></use></g><g><use xlink:href="#b1lVgohDga" opacity="1" fill="#2ba17a" fill-opacity="1"></use></g><g><use xlink:href="#b2IGsnmfBJ" opacity="1" fill="#d53710" fill-opacity="1"></use></g><g><use xlink:href="#c1YlJeEmCR" opacity="1" fill="#0d7e69" fill-opacity="1"></use></g><g><g><use xlink:href="#a1hBvQY0hl" opacity="1" fill-opacity="0" stroke="#439090" stroke-width="15" stroke-opacity="1"></use></g></g><g><g><use xlink:href="#b1Cy6bwbR" opacity="1" fill-opacity="0" stroke="#060606" stroke-width="5" stroke-opacity="1"></use></g></g><g><use xlink:href="#i27tI6Re4p" opacity="1" fill="#e02a68" fill-opacity="1"></use></g><g><use xlink:href="#i15QO1Vdfv" opacity="1" fill="#9cb7b9" fill-opacity="1"></use></g><g><g><use xlink:href="#a57OFufyyT" opacity="1" fill-opacity="0" stroke="#060606" stroke-width="5" stroke-opacity="1"></use></g></g><g><g><use xlink:href="#h2kN1VmpxE" opacity="1" fill-opacity="0" stroke="#000000" stroke-width="5" stroke-opacity="1"></use></g></g></g></g><g><g><use xlink:href="#ckLiow9hf" opacity="1" fill="#ffffff" fill-opacity="1"></use><g><use xlink:href="#ckLiow9hf" opacity="1" fill-opacity="0" stroke="#383c42" stroke-width="10" stroke-opacity="1"></use></g></g><g><use xlink:href="#h2EyclijnT" opacity="1" fill="#5d8587" fill-opacity="1"></use></g><g><use xlink:href="#b8YgdMA13" opacity="1" fill="#23c8c8" fill-opacity="1"></use></g><g><use xlink:href="#e2LBYvcCH" opacity="1" fill="#2a7272" fill-opacity="1"></use></g><g><use xlink:href="#b6AQSXvjj" opacity="1" fill="#e17218" fill-opacity="1"></use></g><g><use xlink:href="#aMHN4rTcb" opacity="1" fill="#2ba17a" fill-opacity="1"></use></g><g><use xlink:href="#cyGEJoI0b" opacity="1" fill="#d53710" fill-opacity="1"></use></g><g><use xlink:href="#b6f4lNiJH" opacity="1" fill="#0d7e69" fill-opacity="1"></use></g><g><g><use xlink:href="#br3TG6EnM" opacity="1" fill-opacity="0" stroke="#439090" stroke-width="15" stroke-opacity="1"></use></g></g><g><g><use xlink:href="#a2CJL0WrtG" opacity="1" fill-opacity="0" stroke="#060606" stroke-width="1" stroke-opacity="1"></use></g></g><g><use xlink:href="#a1rgfmz6q4" opacity="1" fill="#e02a68" fill-opacity="1"></use></g><g><use xlink:href="#h3LXrZvFiX" opacity="1" fill="#9cb7b9" fill-opacity="1"></use></g><g><g><use xlink:href="#b4oQA8rI60" opacity="1" fill-opacity="0" stroke="#060606" stroke-width="1" stroke-opacity="1"></use></g></g><g><g><use xlink:href="#b2lmVqptFB" opacity="1" fill-opacity="0" stroke="#000000" stroke-width="1" stroke-opacity="1"></use></g></g></g><g><g><use xlink:href="#b4Lzy0Qgvh" opacity="1" fill="#fefefe" fill-opacity="1"></use><g><use xlink:href="#b4Lzy0Qgvh" opacity="1" fill-opacity="0" stroke="#383c42" stroke-width="15" stroke-opacity="1"></use></g></g><g><g><g><use xlink:href="#a5Bsujnww" opacity="1" fill="#23c8c8" fill-opacity="1"></use></g><g><use xlink:href="#d7ubUu349" opacity="1" fill="#2a7272" fill-opacity="1"></use></g><g><use xlink:href="#dszAeDzM4" opacity="1" fill="#e17218" fill-opacity="1"></use></g><g><use xlink:href="#b29I6kEq1C" opacity="1" fill="#2ba17a" fill-opacity="1"></use></g><g><use xlink:href="#c1lLMLNF0" opacity="1" fill="#d53710" fill-opacity="1"></use></g><g><use xlink:href="#cYUKWlTRC" opacity="1" fill="#0d7e69" fill-opacity="1"></use></g><g><g><use xlink:href="#bamSuxebD" opacity="1" fill-opacity="0" stroke="#439090" stroke-width="15" stroke-opacity="1"></use></g></g><g><g><use xlink:href="#bzHkTQ7v0" opacity="1" fill-opacity="0" stroke="#060606" stroke-width="5" stroke-opacity="1"></use></g></g><g><g><use xlink:href="#aOkZiIpz7" opacity="1" fill-opacity="0" stroke="#000000" stroke-width="5" stroke-opacity="1"></use></g></g><g><g><use xlink:href="#aDGBzdk" opacity="1" fill-opacity="0" stroke="#000000" stroke-width="5" stroke-opacity="1"></use></g></g><g><use xlink:href="#a7uk3uFhc" opacity="1" fill="#e02a68" fill-opacity="1"></use></g></g><g><use xlink:href="#d1Vf3yDkR" opacity="1" fill="#383c42" fill-opacity="1"></use></g></g></g></g></g></svg>